<?xml version="1.0" encoding="UTF-8" standalone="no"?><svg xmlns="http://www.w3.org/2000/svg" viewBox="0 0 25 25"><defs><style>.cls-1{fill:#525967;}.cls-2{fill:#454b57;}.cls-3{fill:none;}.cls-4{fill:#0acf83;}.cls-5{fill:#a259ff;}.cls-6{fill:#f24e1e;}.cls-7{fill:#ff7262;}.cls-8{fill:#1abcfe;}</style></defs><title>Figma Round_Social_Interface</title><g id="Layer_2" data-name="Layer 2"><g id="Layer_1_copy" data-name="Layer 1 copy"><g id="figma_round" data-name="figma round"><g id="explore"><circle class="cls-1" cx="12.5" cy="12.5" r="7.85" fill="#525967"/><path class="cls-2" d="M12.5 5.25a7.25 7.25 0 1 1-7.25 7.25 7.26 7.26 0 0 1 7.25-7.25m0-.6a7.85 7.85 0 1 0 7.85 7.85 7.85 7.85 0 0 0-7.85-7.85z" fill="#454b57"/></g><path class="cls-3" fill="none" d="M0 0h25v25H0z"/><g id="ads_manager" data-name="ads manager"><path id="path0_fill" data-name="path0 fill" class="cls-4" d="M11 17.11a1.54 1.54 0 0 0 1.54-1.54V14H11a1.54 1.54 0 0 0 0 3.08z" fill="#0acf83"/><path id="path1_fill" data-name="path1 fill" class="cls-5" d="M9.42 12.5A1.54 1.54 0 0 1 11 11h1.5v3H11a1.54 1.54 0 0 1-1.58-1.5z" fill="#a259ff"/><path id="path1_fill-2" data-name="path1 fill" class="cls-6" d="M9.42 9.42A1.54 1.54 0 0 1 11 7.89h1.5V11H11a1.54 1.54 0 0 1-1.58-1.58z" fill="#f24e1e"/><path id="path2_fill" data-name="path2 fill" class="cls-7" d="M12.5 7.89H14A1.54 1.54 0 0 1 14 11h-1.5z" fill="#ff7262"/><path id="path3_fill" data-name="path3 fill" class="cls-8" d="M15.58 12.5A1.54 1.54 0 1 1 14 11a1.54 1.54 0 0 1 1.58 1.5z" fill="#1abcfe"/></g></g></g></g><metadata><rdf:RDF xmlns:rdf="http://www.w3.org/1999/02/22-rdf-syntax-ns#" xmlns:rdfs="http://www.w3.org/2000/01/rdf-schema#" xmlns:dc="http://purl.org/dc/elements/1.1/"><rdf:Description about="https://iconscout.com/legal#licenses" dc:title="figma,round,social,interface" dc:description="figma,round,social,interface" dc:publisher="Iconscout" dc:date="2018-02-01" dc:format="image/svg+xml" dc:language="en"><dc:creator><rdf:Bag><rdf:li>Bohdan Kononets</rdf:li></rdf:Bag></dc:creator></rdf:Description></rdf:RDF></metadata></svg>